<?xml version="1.0" encoding="UTF-8"?>
<svg id="Layer_1" data-name="Layer 1" xmlns="http://www.w3.org/2000/svg" viewBox="0 0 377 377">
  <defs>
    <style>
      .cls-1 {
        fill: #fff;
      }
    </style>
  </defs>
  <path class="cls-1" d="M51.64,177.6V47.52h111.87l1.49,31.78h-74.33v23.41h61.32v29.92h-61.32v44.97h-39.02Z"/>
  <path class="cls-1" d="M148.13,304.82c-1.3-2.69-1.98-5.74-1.98-8.8v-52.39c-7.39-2.94-16.64-5.34-27.78-7.17-6.97-1.37-12.66-2.47-17.08-3.29-4.42-.82-7.57-1.51-9.44-2.06-5.36-1.24-8.04-3.98-8.04-8.23,0-7,7.5-10.5,22.51-10.5,13.75,0,27.03,2.51,39.84,7.52v-37.08c-12.12-3.47-24.4-5.22-36.82-5.22-21.84,0-38.85,4.6-51.04,13.79-11.52,8.64-17.28,19.96-17.28,33.96s5.09,24.77,15.27,31.07c10.05,6.31,23.24,10.77,39.59,13.38,15.14,2.47,24.72,4.53,28.73,6.17,4.29,1.65,6.43,4.25,6.43,7.82,0,7.27-7.57,10.91-22.71,10.91-21.17,0-43.27-6.04-66.31-18.11h-.2v39.51c22.1,8.92,43.61,13.38,64.5,13.38s38.64-4.51,50.37-13.5c-3.6-3.11-6.48-6.85-8.55-11.16Z"/>
  <path class="cls-1" d="M329.36,264.24c-4.02-4.94-10.72-9.4-20.09-13.38,15.81-5.08,23.71-16.12,23.71-33.13,0-11.8-4.22-20.85-12.66-27.16-8.31-6.04-19.76-9.05-34.36-9.05h-44.28v32.31h33.03c10.98,0,16.48,4.12,16.48,12.35,0,8.64-5.49,12.97-16.48,12.97h-33.03v26.75h35.04c11.52,0,17.28,4.46,17.28,13.38s-5.76,13.58-17.28,13.58l-35.04.19v.28c0,2.2-.3,4.4-.88,6.55-2.46,9.02-6.86,16.76-13.08,23.03-.92.93-1.89,1.82-2.88,2.67h57.9c35.5,0,53.25-13.51,53.25-40.54,0-8.37-2.21-15.3-6.63-20.79Z"/>
  <path class="cls-1" d="M290.41,47.52l-33.86,60.95-34.6-60.95h-45.77v33.85c.23-.43.45-.87.7-1.3,1.79-3.01,7.23-12.18,17.03-12.18s15.23,9.17,17.02,12.18c4.48,7.55,5.91,16.2,6.09,25.19l37.58,64.54h2.23l40.51-69.13h.56v76.93h38.09V47.52h-45.58Z"/>
  <path class="cls-1" d="M213.19,169.03c-16.44-23.52,2.86-62.35-10.19-84.33-1.19-2.01-4.56-7.69-9.09-7.69s-7.9,5.68-9.09,7.69c-13.05,21.97,6.26,60.8-10.19,84.33-2.94,4.21-8.4,9.9-19.28,14.04v18.84h77.11v-18.84c-10.88-4.13-16.33-9.83-19.28-14.04Z"/>
  <rect class="cls-1" x="155.36" y="218.2" width="77.11" height="27.77"/>
  <path class="cls-1" d="M155.36,256.05v39.97c0,1.69.35,3.36,1.08,4.88,1.16,2.42,3.19,5.64,6.63,8.5,4.96,4.13,10.15,5.26,12.4,5.62-.23-2.41-.31-5.43.09-8.87.45-3.88,1.38-7.14,2.28-9.61.86,6.86,1.73,13.72,2.59,20.58l26.93,8.07c1.61-3.7,3.18-7.92,4.52-12.64,3.5-12.37,3.23-21.94,3.63-21.93.31,0,.61,5.76.55,30.22,1.67-1.2,3.4-2.63,5.1-4.34,6.35-6.39,9.31-13.71,10.75-19.01.37-1.36.56-2.76.56-4.17v-37.28h-77.11Z"/>
  <rect class="cls-1" x="155.36" y="210.77" width="77.11" height="26.4"/>
</svg>